<svg xmlns="http://www.w3.org/2000/svg" viewBox="0 0 1085.39 152.2"><defs><style>.cls-1{fill:none;stroke:#fff;stroke-miterlimit:10;stroke-width:8px;}</style></defs><title>several-levels-title</title><g id="Layer_2" data-name="Layer 2"><g id="Layer_1-2" data-name="Layer 1"><path class="cls-1" d="M9.21,128a46.12,46.12,0,0,0,23.2,7c12.8,0,18.8-6.4,18.8-14.4,0-8.4-5-13-18-17.8C15.81,96.6,7.61,87,7.61,75.4,7.61,59.8,20.21,47,41,47c9.8,0,18.4,2.8,23.8,6L60.4,65.8a37.68,37.68,0,0,0-19.8-5.6c-10.4,0-16.2,6-16.2,13.2,0,8,5.8,11.6,18.4,16.4,16.8,6.4,25.4,14.8,25.4,29.2,0,17-13.2,29-36.2,29-10.6,0-20.4-2.6-27.2-6.6Z"/><path class="cls-1" d="M100.6,100.8c.4,23.8,15.6,33.6,33.2,33.6,12.6,0,20.2-2.2,26.8-5l3,12.6c-6.2,2.8-16.8,6-32.2,6-29.8,0-47.6-19.6-47.6-48.8S101,47,129.2,47c31.6,0,40,27.8,40,45.6a66.33,66.33,0,0,1-.6,8.2Zm51.6-12.6c.2-11.2-4.6-28.6-24.4-28.6-17.8,0-25.6,16.4-27,28.6Z"/><path class="cls-1" d="M197.8,49.2l19,54.4a249,249,0,0,1,7.8,24.8h.6c2.2-8,5-16,8.2-24.8l18.8-54.4h18.4l-38,96.8H215.8L179,49.2Z"/><path class="cls-1" d="M295,100.8c.4,23.8,15.6,33.6,33.2,33.6,12.6,0,20.2-2.2,26.8-5l3,12.6c-6.2,2.8-16.8,6-32.2,6-29.8,0-47.6-19.6-47.6-48.8S295.4,47,323.6,47c31.6,0,40,27.8,40,45.6a66.31,66.31,0,0,1-.6,8.2Zm51.6-12.6c.2-11.2-4.6-28.6-24.4-28.6-17.8,0-25.6,16.4-27,28.6Z"/><path class="cls-1" d="M385.4,79.4c0-11.4-.2-21.2-.8-30.2H400l.6,19h.8c4.4-13,15-21.2,26.8-21.2a19,19,0,0,1,5,.6V64.2a26.43,26.43,0,0,0-6-.6c-12.4,0-21.2,9.4-23.6,22.6a49.47,49.47,0,0,0-.8,8.2V146H385.4Z"/><path class="cls-1" d="M503.4,146,502,133.8h-.6c-5.4,7.6-15.8,14.4-29.6,14.4-19.6,0-29.6-13.8-29.6-27.8,0-23.4,20.8-36.2,58.2-36v-2c0-8-2.2-22.4-22-22.4a48.22,48.22,0,0,0-25.2,7.2l-4-11.6c8-5.2,19.6-8.6,31.8-8.6,29.6,0,36.8,20.2,36.8,39.6v36.2a136.37,136.37,0,0,0,1.6,23.2Zm-2.6-49.4c-19.2-.4-41,3-41,21.8,0,11.4,7.6,16.8,16.6,16.8,12.6,0,20.6-8,23.4-16.2a18.35,18.35,0,0,0,1-5.6Z"/><path class="cls-1" d="M546.2,4h17.6V146H546.2Z"/><path class="cls-1" d="M635.8,4h17.6V146H635.8Z"/><path class="cls-1" d="M692.79,100.8c.4,23.8,15.6,33.6,33.2,33.6,12.6,0,20.2-2.2,26.8-5l3,12.6c-6.2,2.8-16.8,6-32.2,6-29.8,0-47.6-19.6-47.6-48.8S693.2,47,721.39,47c31.6,0,40,27.8,40,45.6a66.31,66.31,0,0,1-.6,8.2Zm51.6-12.6c.2-11.2-4.6-28.6-24.4-28.6-17.8,0-25.6,16.4-27,28.6Z"/><path class="cls-1" d="M790,49.2l19,54.4a248.86,248.86,0,0,1,7.8,24.8h.6c2.2-8,5-16,8.2-24.8l18.8-54.4h18.4l-38,96.8H808l-36.8-96.8Z"/><path class="cls-1" d="M887.19,100.8c.4,23.8,15.6,33.6,33.2,33.6,12.6,0,20.2-2.2,26.8-5l3,12.6c-6.2,2.8-16.8,6-32.2,6-29.8,0-47.6-19.6-47.6-48.8S887.59,47,915.79,47c31.6,0,40,27.8,40,45.6a66.31,66.31,0,0,1-.6,8.2Zm51.6-12.6c.2-11.2-4.6-28.6-24.4-28.6-17.8,0-25.6,16.4-27,28.6Z"/><path class="cls-1" d="M977.59,4h17.6V146h-17.6Z"/><path class="cls-1" d="M1022.39,128a46.12,46.12,0,0,0,23.2,7c12.8,0,18.8-6.4,18.8-14.4,0-8.4-5-13-18-17.8-17.4-6.2-25.6-15.8-25.6-27.4,0-15.6,12.6-28.4,33.4-28.4,9.8,0,18.4,2.8,23.8,6l-4.4,12.8a37.68,37.68,0,0,0-19.8-5.6c-10.4,0-16.2,6-16.2,13.2,0,8,5.8,11.6,18.4,16.4,16.8,6.4,25.4,14.8,25.4,29.2,0,17-13.2,29-36.2,29-10.6,0-20.4-2.6-27.2-6.6Z"/></g></g></svg>