<svg xmlns="http://www.w3.org/2000/svg" viewBox="0 0 1689.56 142.2"><defs><style>.cls-1{fill:none;stroke:#fff;stroke-miterlimit:10;stroke-width:6px;}</style></defs><title>several-levels-slogan</title><g id="Layer_2" data-name="Layer 2"><g id="Layer_1-2" data-name="Layer 1"><path class="cls-1" d="M17.54,36.9l9.6,36.9c2.1,8.1,4,15.6,5.4,23.1H33c1.65-7.35,4-15.15,6.45-22.95l11.85-37h11.1L73.64,73.2c2.7,8.7,4.8,16.35,6.45,23.7h.45a218.25,218.25,0,0,1,5.55-23.55L96.43,36.9h13l-23.4,72.6h-12L63,74.85A241.93,241.93,0,0,1,56.54,51h-.3a214.72,214.72,0,0,1-6.6,24l-11.7,34.5h-12L4,36.9Z"/><path class="cls-1" d="M128.54,75.6c.3,17.85,11.7,25.2,24.9,25.2,9.45,0,15.15-1.65,20.1-3.75l2.25,9.45c-4.65,2.1-12.6,4.5-24.15,4.5-22.35,0-35.7-14.7-35.7-36.6s12.9-39.15,34-39.15c23.7,0,30,20.85,30,34.2a49.83,49.83,0,0,1-.45,6.15Zm38.7-9.45c.15-8.4-3.45-21.45-18.3-21.45-13.35,0-19.2,12.3-20.25,21.45Z"/><path class="cls-1" d="M195.74,109.5c.3-5,.6-12.3.6-18.75V3h13V48.6h.3c4.65-8.1,13-13.35,24.75-13.35,18,0,30.75,15,30.6,37,0,25.95-16.35,38.85-32.55,38.85-10.5,0-18.9-4-24.3-13.65h-.45l-.6,12Zm13.65-29.1a24.69,24.69,0,0,0,.6,4.8c2.55,9.15,10.2,15.45,19.8,15.45,13.8,0,22-11.25,22-27.9,0-14.55-7.5-27-21.6-27-9,0-17.4,6.15-20.1,16.2a26,26,0,0,0-.75,5.4Z"/><path class="cls-1" d="M353.68,109.5l-1-9.15h-.45c-4,5.7-11.85,10.8-22.2,10.8-14.7,0-22.2-10.35-22.2-20.85,0-17.55,15.6-27.15,43.65-27V61.8c0-6-1.65-16.8-16.5-16.8A36.17,36.17,0,0,0,316,50.4l-3-8.7c6-3.9,14.7-6.45,23.85-6.45,22.2,0,27.6,15.15,27.6,29.7V92.1a102.23,102.23,0,0,0,1.2,17.4Zm-2-37C337.33,72.15,321,74.7,321,88.8c0,8.55,5.7,12.6,12.45,12.6A18.06,18.06,0,0,0,351,89.25a13.78,13.78,0,0,0,.75-4.2Z"/><path class="cls-1" d="M385.78,56.55c0-7.5-.15-13.65-.6-19.65h11.7l.75,12h.3c3.6-6.9,12-13.65,24-13.65,10,0,25.65,6,25.65,30.9V109.5h-13.2V67.65c0-11.7-4.35-21.45-16.8-21.45-8.7,0-15.45,6.15-17.7,13.5a19,19,0,0,0-.9,6.15V109.5h-13.2Z"/><path class="cls-1" d="M531.73,3V90.75c0,6.45.15,13.8.6,18.75H520.48l-.6-12.6h-.3c-4,8.1-12.9,14.25-24.75,14.25-17.55,0-31-14.85-31-36.9-.15-24.15,14.85-39,32.55-39,11.1,0,18.6,5.25,21.9,11.1h.3V3Zm-13.2,63.45a23.28,23.28,0,0,0-.6-5.55,19.41,19.41,0,0,0-19-15.3c-13.65,0-21.75,12-21.75,28,0,14.7,7.2,26.85,21.45,26.85,8.85,0,16.95-5.85,19.35-15.75a22.92,22.92,0,0,0,.6-5.7Z"/><path class="cls-1" d="M625.63,109.5l-1-9.15h-.45c-4,5.7-11.85,10.8-22.2,10.8-14.7,0-22.2-10.35-22.2-20.85,0-17.55,15.6-27.15,43.65-27V61.8c0-6-1.65-16.8-16.5-16.8A36.18,36.18,0,0,0,588,50.4l-3-8.7c6-3.9,14.7-6.45,23.85-6.45,22.2,0,27.6,15.15,27.6,29.7V92.1a102.18,102.18,0,0,0,1.2,17.4Zm-1.95-37c-14.4-.3-30.75,2.25-30.75,16.35,0,8.55,5.7,12.6,12.45,12.6a18.06,18.06,0,0,0,17.55-12.15,13.77,13.77,0,0,0,.75-4.2Z"/><path class="cls-1" d="M657.73,60.6c0-9.3-.3-16.8-.6-23.7H669l.6,12.45h.3c5.4-8.85,14-14.1,25.8-14.1,17.55,0,30.75,14.85,30.75,36.9,0,26.1-15.9,39-33,39-9.6,0-18-4.2-22.35-11.4h-.3V139.2h-13Zm13,19.35a29.73,29.73,0,0,0,.6,5.4,20.37,20.37,0,0,0,19.8,15.45c13.95,0,22-11.4,22-28,0-14.55-7.65-27-21.6-27-9,0-17.4,6.45-19.95,16.35a21.41,21.41,0,0,0-.9,5.4Z"/><path class="cls-1" d="M743.08,60.6c0-9.3-.3-16.8-.6-23.7h11.85l.6,12.45h.3c5.4-8.85,14-14.1,25.8-14.1,17.55,0,30.75,14.85,30.75,36.9,0,26.1-15.9,39-33,39-9.6,0-18-4.2-22.35-11.4h-.3V139.2h-13Zm13,19.35a29.73,29.73,0,0,0,.6,5.4,20.37,20.37,0,0,0,19.8,15.45c13.95,0,22-11.4,22-28,0-14.55-7.65-27-21.6-27-9,0-17.4,6.45-19.95,16.35a21.41,21.41,0,0,0-.9,5.4Z"/><path class="cls-1" d="M922.92,3V90.75c0,6.45.15,13.8.6,18.75H911.67l-.6-12.6h-.3c-4,8.1-12.9,14.25-24.75,14.25-17.55,0-31-14.85-31-36.9-.15-24.15,14.85-39,32.55-39,11.1,0,18.6,5.25,21.9,11.1h.3V3Zm-13.2,63.45a23.28,23.28,0,0,0-.6-5.55,19.41,19.41,0,0,0-19-15.3c-13.65,0-21.75,12-21.75,28,0,14.7,7.2,26.85,21.45,26.85,8.85,0,16.95-5.85,19.35-15.75a22.92,22.92,0,0,0,.6-5.7Z"/><path class="cls-1" d="M952.17,75.6c.3,17.85,11.7,25.2,24.9,25.2,9.45,0,15.15-1.65,20.1-3.75l2.25,9.45c-4.65,2.1-12.6,4.5-24.15,4.5-22.35,0-35.7-14.7-35.7-36.6s12.9-39.15,34-39.15c23.7,0,30,20.85,30,34.2a49.71,49.71,0,0,1-.45,6.15Zm38.7-9.45c.15-8.4-3.45-21.45-18.3-21.45-13.35,0-19.2,12.3-20.25,21.45Z"/><path class="cls-1" d="M1025.07,36.9l14.25,40.8a186.81,186.81,0,0,1,5.85,18.6h.45c1.65-6,3.75-12,6.15-18.6l14.1-40.8h13.8l-28.5,72.6h-12.6L1011,36.9Z"/><path class="cls-1" d="M1098,75.6c.3,17.85,11.7,25.2,24.9,25.2,9.45,0,15.15-1.65,20.1-3.75l2.25,9.45c-4.65,2.1-12.6,4.5-24.15,4.5-22.35,0-35.7-14.7-35.7-36.6s12.9-39.15,34-39.15c23.7,0,30,20.85,30,34.2a49.71,49.71,0,0,1-.45,6.15Zm38.7-9.45c.15-8.4-3.45-21.45-18.3-21.45-13.35,0-19.2,12.3-20.25,21.45Z"/><path class="cls-1" d="M1165.77,3H1179V109.5h-13.2Z"/><path class="cls-1" d="M1266.86,72.6c0,26.85-18.6,38.55-36.15,38.55-19.65,0-34.8-14.4-34.8-37.35,0-24.3,15.9-38.55,36-38.55C1252.77,35.25,1266.86,50.4,1266.86,72.6Zm-57.6.75c0,15.9,9.15,27.9,22,27.9,12.6,0,22-11.85,22-28.2,0-12.3-6.15-27.9-21.75-27.9S1209.27,59.55,1209.27,73.35Z"/><path class="cls-1" d="M1283.52,60.6c0-9.3-.3-16.8-.6-23.7h11.85l.6,12.45h.3c5.4-8.85,14-14.1,25.8-14.1,17.55,0,30.75,14.85,30.75,36.9,0,26.1-15.9,39-33,39-9.6,0-18-4.2-22.35-11.4h-.3V139.2h-13Zm13,19.35a29.73,29.73,0,0,0,.6,5.4A20.37,20.37,0,0,0,1317,100.8c13.95,0,22-11.4,22-28,0-14.55-7.65-27-21.6-27-9,0-17.4,6.45-19.95,16.35a21.41,21.41,0,0,0-.9,5.4Z"/><path class="cls-1" d="M1368.86,56.55c0-7.5-.15-13.65-.6-19.65h11.55l.6,11.7h.45c4-6.9,10.8-13.35,22.8-13.35,9.9,0,17.4,6,20.55,14.55h.3a29.91,29.91,0,0,1,8.1-9.45c4.35-3.3,9.15-5.1,16-5.1,9.6,0,23.85,6.3,23.85,31.5V109.5h-12.9V68.4c0-13.95-5.1-22.35-15.75-22.35-7.5,0-13.35,5.55-15.6,12a21.75,21.75,0,0,0-1,6.6V109.5h-12.9V66c0-11.55-5.1-19.95-15.15-19.95-8.25,0-14.25,6.6-16.35,13.2a18.2,18.2,0,0,0-1.05,6.45v43.8h-12.9Z"/><path class="cls-1" d="M1501.31,75.6c.3,17.85,11.7,25.2,24.9,25.2,9.45,0,15.15-1.65,20.1-3.75l2.25,9.45c-4.65,2.1-12.6,4.5-24.15,4.5-22.35,0-35.7-14.7-35.7-36.6s12.9-39.15,34-39.15c23.7,0,30,20.85,30,34.2a49.71,49.71,0,0,1-.45,6.15Zm38.7-9.45c.15-8.4-3.45-21.45-18.3-21.45-13.35,0-19.2,12.3-20.25,21.45Z"/><path class="cls-1" d="M1569.11,56.55c0-7.5-.15-13.65-.6-19.65h11.7l.75,12h.3c3.6-6.9,12-13.65,24-13.65,10,0,25.65,6,25.65,30.9V109.5h-13.2V67.65c0-11.7-4.35-21.45-16.8-21.45-8.7,0-15.45,6.15-17.7,13.5a19,19,0,0,0-.9,6.15V109.5h-13.2Z"/><path class="cls-1" d="M1667.66,16V36.9h18.9v10h-18.9V86.1c0,9,2.55,14.1,9.9,14.1a29.41,29.41,0,0,0,7.65-.9l.6,9.9a32.31,32.31,0,0,1-11.7,1.8c-6.15,0-11.1-2-14.25-5.55-3.75-3.9-5.1-10.35-5.1-18.9V46.95h-11.25v-10h11.25V19.5Z"/></g></g></svg>