<svg xmlns="http://www.w3.org/2000/svg" viewBox="0 0 1076 1076"><defs><style>.cls-1,.cls-2{fill:none;stroke:#27cfe6;stroke-miterlimit:10;}.cls-1{stroke-width:50px;}.cls-2{stroke-width:40px;}</style></defs><title>strokes</title><g id="Layer_2" data-name="Layer 2"><g id="Layer_1-2" data-name="Layer 1"><circle class="cls-1" cx="538" cy="538" r="513"/><path class="cls-2" d="M527.47,689.93q0,27-10,48a97.79,97.79,0,0,1-28.32,35.55Q470.82,788,445.44,795.39t-55.86,7.42a214.1,214.1,0,0,1-66.21-10.35,157.37,157.37,0,0,1-22.85-9.37q-9.37-4.88-13.67-8.79a22.43,22.43,0,0,1-6.25-10.94q-2-7-2-19.14a83.63,83.63,0,0,1,.78-12.5,42.33,42.33,0,0,1,2-8.2A8.73,8.73,0,0,1,284.7,719a8.9,8.9,0,0,1,4.88-1.37q4.29,0,12.7,5.27T323,734.46A190.49,190.49,0,0,0,352.08,746q16.79,5.27,38.67,5.27a116.07,116.07,0,0,0,29.69-3.52,71.89,71.89,0,0,0,23-10.35,46.08,46.08,0,0,0,15-17.38q5.27-10.55,5.27-25,0-14.84-7.62-25a73.41,73.41,0,0,0-20.12-18,167.2,167.2,0,0,0-28.12-13.87q-15.63-6.05-32.23-12.7a330.27,330.27,0,0,1-32.42-15A123.85,123.85,0,0,1,315,589.93,93.43,93.43,0,0,1,294.85,561q-7.62-16.79-7.62-40.23a100.8,100.8,0,0,1,8-39.65,92,92,0,0,1,24-33.2q16-14.25,40-22.85t56.05-8.59a170.8,170.8,0,0,1,28.13,2.34,193.23,193.23,0,0,1,25.39,5.86,122.36,122.36,0,0,1,19.34,7.62,84.48,84.48,0,0,1,12.11,7.23,21.41,21.41,0,0,1,5.47,5.47,17.06,17.06,0,0,1,2,5.27q.59,2.93,1.17,7.23a80,80,0,0,1,.59,10.55,98.15,98.15,0,0,1-.59,11.52,28.82,28.82,0,0,1-2,8,10.4,10.4,0,0,1-3.32,4.49,7.31,7.31,0,0,1-4.3,1.37q-3.52,0-10.16-4.3A143.53,143.53,0,0,0,472,480a190.9,190.9,0,0,0-24.8-9.18q-14.26-4.29-32.62-4.3a101.89,101.89,0,0,0-28.91,3.71q-12.51,3.72-20.51,10.55A44.61,44.61,0,0,0,353.05,497a50.13,50.13,0,0,0-4.1,20.31q0,15.23,7.81,25.59A74.38,74.38,0,0,0,377.08,561a170.14,170.14,0,0,0,28.52,14.06q16,6.25,32.62,12.89T471,602.82a122.79,122.79,0,0,1,28.71,19.92,90.11,90.11,0,0,1,20.12,28.13Q527.47,667.27,527.47,689.93Z"/><path class="cls-2" d="M684.11,785.63a8.73,8.73,0,0,1-1.56,5.27,12.22,12.22,0,0,1-5.08,3.71A36.09,36.09,0,0,1,667.7,797a134.18,134.18,0,0,1-16,.78,130,130,0,0,1-15.62-.78,39,39,0,0,1-10-2.34A10.66,10.66,0,0,1,621,790.9a9.57,9.57,0,0,1-1.37-5.27V263.75a10.62,10.62,0,0,1,1.37-5.47,10.15,10.15,0,0,1,5.08-3.91,39,39,0,0,1,10-2.34,130,130,0,0,1,15.63-.78,134.18,134.18,0,0,1,16,.78,36.05,36.05,0,0,1,9.77,2.34,11.52,11.52,0,0,1,5.08,3.91,9.66,9.66,0,0,1,1.56,5.47Z"/></g></g></svg>